{
  "accessors": [
    {
      "bufferView": 2,
      "componentType": 5126,
      "count": 24506,
      "max": [
        16.364059448242188,
        -1.3127440214157104,
        5.798320770263672
      ],
      "min": [
        4.565666198730469,
        -18.122562408447266,
        -0.06840600073337555
      ],
      "type": "VEC3"
    },
    {
      "bufferView": 2,
      "byteOffset": 294072,
      "componentType": 5126,
      "count": 24506,
      "max": [
        0.9997704029083252,
        0.9999611973762512,
        0.9999334216117859
      ],
      "min": [
        -0.9998789429664612,
        -0.9999710917472839,
        -0.9999986290931702
      ],
      "type": "VEC3"
    },
    {
      "bufferView": 1,
      "componentType": 5126,
      "count": 24506,
      "max": [
        0.9999099969863892,
        0.9980400204658508
      ],
      "min": [
        0.011780000291764736,
        -0.003809999907389283
      ],
      "type": "VEC2"
    },
    {
      "bufferView": 0,
      "componentType": 5125,
      "count": 135540,
      "type": "SCALAR"
    }
  ],
  "asset": {
    "extras": {
      "author": "Juan (https://sketchfab.com/juane3d)",
      "license": "CC-BY-4.0 (http://creativecommons.org/licenses/by/4.0/)",
      "source": "https://sketchfab.com/3d-models/thai-mask-79da9d12d8f94fec88ca4d158211fa37",
      "title": "Thai Mask"
    },
    "generator": "Sketchfab-12.68.0",
    "version": "2.0"
  },
  "bufferViews": [
    {
      "buffer": 0,
      "byteLength": 542160,
      "name": "floatBufferViews",
      "target": 34963
    },
    {
      "buffer": 0,
      "byteLength": 196048,
      "byteOffset": 542160,
      "byteStride": 8,
      "name": "floatBufferViews",
      "target": 34962
    },
    {
      "buffer": 0,
      "byteLength": 588144,
      "byteOffset": 738208,
      "byteStride": 12,
      "name": "floatBufferViews",
      "target": 34962
    }
  ],
  "buffers": [
    {
      "byteLength": 1326352,
      "uri": "scene.bin"
    }
  ],
  "images": [
    {
      "uri": "textures/Scene_-_Root_baseColor.jpeg"
    },
    {
      "uri": "textures/Scene_-_Root_metallicRoughness.png"
    }
  ],
  "materials": [
    {
      "doubleSided": true,
      "name": "Scene_-_Root",
      "pbrMetallicRoughness": {
        "baseColorTexture": {
          "index": 0
        },
        "metallicFactor": 0.0,
        "metallicRoughnessTexture": {
          "index": 1
        },
        "roughnessFactor": 0.4346417682926829
      }
    }
  ],
  "meshes": [
    {
      "name": "Object_0",
      "primitives": [
        {
          "attributes": {
            "NORMAL": 1,
            "POSITION": 0,
            "TEXCOORD_0": 2
          },
          "indices": 3,
          "material": 0,
          "mode": 4
        }
      ]
    }
  ],
  "nodes": [
    {
      "children": [
        1
      ],
      "matrix": [
        0.009999999776482582,
        0.0,
        0.0,
        0.0,
        0.0,
        0.009999999776482582,
        2.2204459996194763e-18,
        0.0,
        0.0,
        -2.2204459996194763e-18,
        0.009999999776482582,
        0.0,
        0.0,
        12.58264636993408,
        6.852723121643069,
        1.0
      ],
      "name": "Sketchfab_model"
    },
    {
      "children": [
        2
      ],
      "name": "modelo.OBJ.cleaner.materialmerger.gles"
    },
    {
      "mesh": 0,
      "name": "Object_2"
    }
  ],
  "samplers": [
    {
      "magFilter": 9729,
      "minFilter": 9987,
      "wrapS": 10497,
      "wrapT": 10497
    }
  ],
  "scene": 0,
  "scenes": [
    {
      "name": "Sketchfab_Scene",
      "nodes": [
        0
      ]
    }
  ],
  "textures": [
    {
      "sampler": 0,
      "source": 0
    },
    {
      "sampler": 0,
      "source": 1
    }
  ]
}
